<?xml version="1.0" encoding="UTF-8"?><!DOCTYPE svg PUBLIC "-//W3C//DTD SVG 1.1//EN" "http://www.w3.org/Graphics/SVG/1.1/DTD/svg11.dtd"><svg xmlns="http://www.w3.org/2000/svg"><symbol id="icon-facebook" viewBox="0 0 10 19">
    <title>
        facebook
    </title>
    <path d="M9.766.157v2.946H8.014c-.64 0-1.071.134-1.295.402-.223.268-.335.67-.335 1.205v2.11h3.27l-.435 3.303H6.384v8.471H2.97v-8.47H.123V6.82H2.97V4.387c0-1.384.387-2.457 1.161-3.22C4.904.404 5.934.023 7.222.023c1.093 0 1.941.045 2.544.134z" fill-rule="evenodd"/>
</symbol><symbol id="icon-logo" viewBox="0 0 183.2 34.7">
    <style>
        .st1{fill:#fff}.st0{fill:#82b541}
    </style>
    <path class="st0" d="M23.5 3.5c-.9-.5-3.6-.2-6.7.8-5.6 3.8-10.3 9.4-10.6 18.4-.1.2-.6 0-.7-.1-1.5-2.9-2.1-5.9-.9-10.3.2-.4-.5-.9-.7-.7-.3.3-1.4 1.5-2.2 2.8C-2 20.9.5 29.3 7.1 33c6.6 3.7 14.9 1.3 18.6-5.3 4.2-7.6.3-22.8-2.2-24.2z"/>
    <g>
        <path class="st1" d="M47.1 7.2C39.3 7.2 33.6 13 33.6 21c0 8.1 5.7 13.7 13.8 13.7 4.1 0 7.3-1.3 9.9-3.9.8-.8.9-1.6.9-1.9 0-1.3-1-2.3-2.3-2.3-.7 0-1.2.3-1.9.9-1.5 1.4-3.4 2.8-6.6 2.8-4.4 0-8.1-3.3-8.3-7.6h17.7c1.9 0 2.9-.9 2.9-2.7 0-.5 0-.9-.1-1.7-1-7-5.7-11.1-12.5-11.1zm0 4.2c4.2 0 7 2.7 7.1 7.1H39.1c.4-4 3.8-7.1 8-7.1z"/>
        <path class="st1" d="M76.5 7.2c-3.6 0-7.1 2-8.4 4.9v-1.8c0-2.7-2.1-2.9-2.5-2.9-1.2 0-2.6.8-2.6 2.9v21.2c0 2.8 2.2 3 2.7 3 .4 0 2.7-.1 2.7-3V20.1c0-4.9 2.8-8.4 6.8-8.4 3.9 0 5.8 2.5 5.8 7.8v12c0 2.8 2.2 3 2.7 3 .4 0 2.7-.1 2.7-3V17.8c-.1-5.1-2.7-10.6-9.9-10.6z"/>
        <path class="st1" d="M110.7 7.4c-1.2 0-2.1.7-2.7 2.2l-7.4 18.5-7.3-18.5c-.6-1.4-1.5-2.2-2.7-2.2-1.5 0-2.7 1.2-2.7 2.6 0 .4 0 .8.3 1.5l8.5 20c1 2.4 2.7 2.9 3.9 2.9 1.2 0 2.9-.5 3.9-2.9l8.5-20.1c.3-.7.3-1.2.3-1.5 0-1.4-1.1-2.5-2.6-2.5z"/>
        <path class="st1" d="M126.3 7.2c-3.4 0-6.7 1-9 2.7-.8.6-1.2 1.3-1.2 2.1 0 1.2.9 2.1 2.1 2.1.5 0 1.1-.2 1.6-.6 2-1.4 4-2 6-2 4 0 6.3 2 6.3 5.6v.6c-8.9 0-18 1.1-18 8.9 0 5.6 4.8 8.1 9.5 8.1 3.8 0 6.8-1.5 8.7-4.3v1.4c0 2 1.4 2.7 2.5 2.7.2 0 2.4-.1 2.4-2.7V17.4c.1-6.4-4-10.2-10.9-10.2zm4.7 14.5h1.1v1.2c0 4.5-2.9 7.5-7.4 7.5-1.2 0-5.2-.3-5.2-3.9.1-4.3 6.6-4.8 11.5-4.8z"/>
        <path class="st1" d="M151.3 12.3c2.4 0 2.5-1.8 2.5-2.2 0-1.1-.7-2.3-2.5-2.3h-4.8V3c0-2.2-1.4-3-2.6-3-.4 0-2.7.1-2.7 3v23.3c0 5.4 2.6 8.2 7.7 8.2 1.3 0 2.6-.2 3.4-.6.9-.5 1.5-1.3 1.5-2.1 0-1.2-.9-2.1-2.1-2.1-.2 0-.6.1-1 .2-.5.1-.8.2-1.1.2-2 0-3-1.3-3-4.2V12.3h4.7z"/>
        <path class="st1" d="M169.1 7.2C161 7.2 155 13 155 20.9c0 3.9 1.4 7.4 4 9.9s6.1 3.9 10 3.9c8 0 14.1-5.9 14.1-13.8.1-8-5.9-13.7-14-13.7zm0 22.9c-5.6 0-8.5-4.7-8.5-9.3 0-6.3 4.4-9.2 8.5-9.2s8.5 2.9 8.5 9.2c0 6.4-4.4 9.3-8.5 9.3z"/>
    </g>
</symbol></svg>